<?xml version="1.0" encoding="UTF-8" standalone="no"?><svg xmlns="http://www.w3.org/2000/svg" xmlns:xlink="http://www.w3.org/1999/xlink" contentStyleType="text/css" height="271px" preserveAspectRatio="none" style="width:955px;height:271px;background:#FFFFFF;" version="1.1" viewBox="0 0 955 271" width="955px" zoomAndPan="magnify"><defs/><g><!--MD5=[ac27d9ccab3d9ec7a8766d061192c289]
entity currdb_manual_rates_mod--><g id="elem_currdb_manual_rates_mod"><rect fill="#F1F1F1" height="46.2969" rx="2.5" ry="2.5" style="stroke:#181818;stroke-width:0.5;" width="228" x="7" y="7"/><rect fill="#F1F1F1" height="10" style="stroke:#181818;stroke-width:0.5;" width="15" x="215" y="12"/><rect fill="#F1F1F1" height="2" style="stroke:#181818;stroke-width:0.5;" width="4" x="213" y="14"/><rect fill="#F1F1F1" height="2" style="stroke:#181818;stroke-width:0.5;" width="4" x="213" y="18"/><text fill="#000000" font-family="sans-serif" font-size="14" lengthAdjust="spacing" textLength="188" x="22" y="39.9951">currdb_manual_rates_mod</text></g><!--MD5=[9f1bd0ee68cd217c7fcbad92f78c5aa4]
entity currdb_mod--><g id="elem_currdb_mod"><rect fill="#F1F1F1" height="46.2969" rx="2.5" ry="2.5" style="stroke:#181818;stroke-width:0.5;" width="126" x="450" y="113"/><rect fill="#F1F1F1" height="10" style="stroke:#181818;stroke-width:0.5;" width="15" x="556" y="118"/><rect fill="#F1F1F1" height="2" style="stroke:#181818;stroke-width:0.5;" width="4" x="554" y="120"/><rect fill="#F1F1F1" height="2" style="stroke:#181818;stroke-width:0.5;" width="4" x="554" y="124"/><text fill="#000000" font-family="sans-serif" font-size="14" lengthAdjust="spacing" textLength="86" x="465" y="145.9951">currdb_mod</text></g><!--MD5=[cbc699181df43818c3de4ce147efaf1d]
entity currdb_currency_used_mod--><g id="elem_currdb_currency_used_mod"><rect fill="#F1F1F1" height="46.2969" rx="2.5" ry="2.5" style="stroke:#181818;stroke-width:0.5;" width="235" x="270.5" y="7"/><rect fill="#F1F1F1" height="10" style="stroke:#181818;stroke-width:0.5;" width="15" x="485.5" y="12"/><rect fill="#F1F1F1" height="2" style="stroke:#181818;stroke-width:0.5;" width="4" x="483.5" y="14"/><rect fill="#F1F1F1" height="2" style="stroke:#181818;stroke-width:0.5;" width="4" x="483.5" y="18"/><text fill="#000000" font-family="sans-serif" font-size="14" lengthAdjust="spacing" textLength="195" x="285.5" y="39.9951">currdb_currency_used_mod</text></g><!--MD5=[72d64d4883495e09e19b1466ab432442]
entity currdb_currency_mod--><g id="elem_currdb_currency_mod"><rect fill="#F1F1F1" height="46.2969" rx="2.5" ry="2.5" style="stroke:#181818;stroke-width:0.5;" width="195" x="540.5" y="7"/><rect fill="#F1F1F1" height="10" style="stroke:#181818;stroke-width:0.5;" width="15" x="715.5" y="12"/><rect fill="#F1F1F1" height="2" style="stroke:#181818;stroke-width:0.5;" width="4" x="713.5" y="14"/><rect fill="#F1F1F1" height="2" style="stroke:#181818;stroke-width:0.5;" width="4" x="713.5" y="18"/><text fill="#000000" font-family="sans-serif" font-size="14" lengthAdjust="spacing" textLength="155" x="555.5" y="39.9951">currdb_currency_mod</text></g><!--MD5=[c1ddeaa2f704874f789dbb3fb58c2988]
entity currdb_config_mod--><g id="elem_currdb_config_mod"><rect fill="#F1F1F1" height="46.2969" rx="2.5" ry="2.5" style="stroke:#181818;stroke-width:0.5;" width="178" x="771" y="7"/><rect fill="#F1F1F1" height="10" style="stroke:#181818;stroke-width:0.5;" width="15" x="929" y="12"/><rect fill="#F1F1F1" height="2" style="stroke:#181818;stroke-width:0.5;" width="4" x="927" y="14"/><rect fill="#F1F1F1" height="2" style="stroke:#181818;stroke-width:0.5;" width="4" x="927" y="18"/><text fill="#000000" font-family="sans-serif" font-size="14" lengthAdjust="spacing" textLength="138" x="786" y="39.9951">currdb_config_mod</text></g><!--MD5=[26cb61d37ceee763fc456684d4380afa]
entity idbr_mod--><g id="elem_idbr_mod"><rect fill="#F1F1F1" height="46.2969" rx="2.5" ry="2.5" style="stroke:#181818;stroke-width:0.5;" width="108" x="459" y="219"/><rect fill="#F1F1F1" height="10" style="stroke:#181818;stroke-width:0.5;" width="15" x="547" y="224"/><rect fill="#F1F1F1" height="2" style="stroke:#181818;stroke-width:0.5;" width="4" x="545" y="226"/><rect fill="#F1F1F1" height="2" style="stroke:#181818;stroke-width:0.5;" width="4" x="545" y="230"/><text fill="#000000" font-family="sans-serif" font-size="14" lengthAdjust="spacing" textLength="68" x="474" y="251.9951">idbr_mod</text></g><g id="elem_GMN818941"><path d="M602.5,229.5 L602.5,238 L567.242,242 L602.5,246 L602.5,254.6328 A0,0 0 0 0 602.5,254.6328 L847.5,254.6328 A0,0 0 0 0 847.5,254.6328 L847.5,239.5 L837.5,229.5 L602.5,229.5 A0,0 0 0 0 602.5,229.5 " fill="#FEFFDD" style="stroke:#181818;stroke-width:0.5;"/><path d="M837.5,229.5 L837.5,239.5 L847.5,239.5 L837.5,229.5 " fill="#FEFFDD" style="stroke:#181818;stroke-width:0.5;"/><text fill="#000000" font-family="sans-serif" font-size="13" lengthAdjust="spacing" textLength="224" x="608.5" y="246.5669">I want to isolate this generic library</text></g><g id="elem_GMN818944"><path d="M611,123.5 L611,132 L576.34,136 L611,140 L611,148.6328 A0,0 0 0 0 611,148.6328 L875,148.6328 A0,0 0 0 0 875,148.6328 L875,133.5 L865,123.5 L611,123.5 A0,0 0 0 0 611,123.5 " fill="#FEFFDD" style="stroke:#181818;stroke-width:0.5;"/><path d="M865,123.5 L865,133.5 L875,133.5 L865,123.5 " fill="#FEFFDD" style="stroke:#181818;stroke-width:0.5;"/><text fill="#000000" font-family="sans-serif" font-size="13" lengthAdjust="spacing" textLength="243" x="617" y="140.5669">encapsulates all functions for db work</text></g><!--MD5=[6b5c33d7279c83d61a4f4138f79590a3]
link currdb_manual_rates_mod to currdb_mod--><g id="link_currdb_manual_rates_mod_currdb_mod"><path d="M204.133,53.056 C275.758,72.058 377.887,99.154 444.794,116.905 " fill="none" id="currdb_manual_rates_mod-to-currdb_mod" style="stroke:#181818;stroke-width:1.0;stroke-dasharray:7.0,7.0;"/><polygon fill="#181818" points="449.95,118.273,442.2758,112.1,445.117,116.9915,440.2254,119.8328,449.95,118.273" style="stroke:#181818;stroke-width:1.0;"/></g><!--MD5=[8d9535ddbc4db7eca837c7359a720b16]
link currdb_currency_used_mod to currdb_mod--><g id="link_currdb_currency_used_mod_currdb_mod"><path d="M414.509,53.056 C434.396,69.602 461.658,92.284 482.459,109.59 " fill="none" id="currdb_currency_used_mod-to-currdb_mod" style="stroke:#181818;stroke-width:1.0;stroke-dasharray:7.0,7.0;"/><polygon fill="#181818" points="486.529,112.976,482.1706,104.144,482.686,109.7773,477.0527,110.2928,486.529,112.976" style="stroke:#181818;stroke-width:1.0;"/></g><!--MD5=[3801c152bd9df310499160e5cd889f22]
link currdb_currency_mod to currdb_mod--><g id="link_currdb_currency_mod_currdb_mod"><path d="M611.491,53.056 C591.604,69.602 564.342,92.284 543.541,109.59 " fill="none" id="currdb_currency_mod-to-currdb_mod" style="stroke:#181818;stroke-width:1.0;stroke-dasharray:7.0,7.0;"/><polygon fill="#181818" points="539.471,112.976,548.9473,110.2928,543.314,109.7773,543.8294,104.144,539.471,112.976" style="stroke:#181818;stroke-width:1.0;"/></g><!--MD5=[5f0cd969c12478d19ed657b9f9e4257f]
link currdb_config_mod to currdb_mod--><g id="link_currdb_config_mod_currdb_mod"><path d="M786.41,53.056 C725.65,71.266 640.092,96.909 580.94,114.638 " fill="none" id="currdb_config_mod-to-currdb_mod" style="stroke:#181818;stroke-width:1.0;stroke-dasharray:7.0,7.0;"/><polygon fill="#181818" points="576.015,116.114,585.7846,117.3608,580.8044,114.678,583.4871,109.6978,576.015,116.114" style="stroke:#181818;stroke-width:1.0;"/></g><!--MD5=[645ecb0209d66d2ad883c4b494a02a3d]
link currdb_mod to idbr_mod--><g id="link_currdb_mod_idbr_mod"><path d="M513,159.056 C513,175.0503 513,196.7785 513,213.8418 " fill="none" id="currdb_mod-to-idbr_mod" style="stroke:#181818;stroke-width:1.0;stroke-dasharray:7.0,7.0;"/><polygon fill="#181818" points="513,218.9761,517,209.9761,513,213.9761,509,209.9761,513,218.9761" style="stroke:#181818;stroke-width:1.0;"/></g><!--MD5=[46a593a01d88e6f246afddd8b79b21b7]
@startuml
[currdb_manual_rates_mod] ..> [currdb_mod]
[currdb_currency_used_mod] ..> [currdb_mod]
[currdb_currency_mod] ..> [currdb_mod]
[currdb_config_mod] ..> [currdb_mod]
[currdb_mod] ..> [idbr_mod]

note right of (idbr_mod): I want to isolate this generic library
note right of (currdb_mod): encapsulates all functions for db work
@enduml

PlantUML version 1.2022.5(Sat Apr 30 10:55:52 UTC 2022)
(GPL source distribution)
Java Runtime: Java(TM) SE Runtime Environment
JVM: Java HotSpot(TM) 64-Bit Server VM
Default Encoding: UTF-8
Language: en
Country: US
--></g></svg>